<svg xmlns="http://www.w3.org/2000/svg" viewBox="0 0 480 480"><defs><style>.cls-1{fill:#2e2e2e;}.cls-2{fill:#fff;}.cls-3{fill:#848484;}</style></defs><title>Asset 2</title><g id="Layer_2" data-name="Layer 2"><g id="Layer_1-2" data-name="Layer 1"><path class="cls-1" d="M246.33.16c15.28-1.31,29,5.62,42.66,12.13,15.69,7.5,29.91,17.33,43.32,28.35,11.69,9.61,23.14,19.42,33.93,30,20.35,19.93,37.55,42.06,50.84,67.11,7.49,14.12,15.16,28.14,22.5,42.34a74.58,74.58,0,0,0,21.67,25.74c14.74,11,20.7,25.36,18.2,43.31-1.41,10.13-1.14,20.27-.52,30.53,1.31,21.81-7.8,38.93-26.52,51.27-10,6.62-21,11.54-31.47,17.31-12.56,6.9-21.57,17.05-28.9,28.81-9.38,15-18.88,30-32,42.24-9.21,8.57-20,15-30.86,21.34-17.32,10.07-34.72,20-51.9,30.35-19.74,11.85-39.48,12-59.36.69a339.15,339.15,0,0,0-38-18.08c-22.48-9.32-40.24-23.83-53.35-44a358.38,358.38,0,0,0-33.17-43.65,192.77,192.77,0,0,0-58.17-44.66c-10.2-5.07-20.47-10.14-27-20.11-5.39-8.24-8.82-17-8.15-26.86.66-9.6.62-19.25,2.47-28.76,2.46-12.61,7.53-23.7,18.08-32,14.19-11.09,21.8-26.51,29.4-42.12,12.62-25.91,27.16-50.82,45.18-73.56C104.63,86,115.64,75.51,127,65.3c12.09-10.87,24.28-21.59,36.83-31.94,15.08-12.45,32.49-20.68,50.8-27.47C224.66,2.17,234.82-.28,246.33.16Z"/><path class="cls-1" d="M414.22,216.21c13.59.66,25.37-.06,37.15-.55,1.37-.06,3.47.58,3.85-1,.32-1.37-1.64-2.12-2.86-2.87a13.07,13.07,0,0,0-3-1.66c-6.76-1.93-9.68-7.08-12.23-12.94a159.1,159.1,0,0,0-10.3-20.66c-6.52-10.46-11.88-21.5-17.52-32.37-6.19-11.95-12.77-23.86-20.87-34.38C376.75,94.66,362.84,81.27,349,67.83c-14.12-13.74-29.79-25.42-45.73-36.7C291.42,22.73,278.09,16,263.44,12.6a11.66,11.66,0,0,1-3.65-1.34c-9.69-6.29-19.5-5.68-29.26-.37a52.09,52.09,0,0,1-12.68,4.45c-13.12,3.22-25.59,8.57-36.12,16.49a630.6,630.6,0,0,0-62.2,53.81c-12.78,12.52-24.61,25.69-33,41.49C80,139.49,71.82,150.91,65,163.16c-7.22,13-12.53,26.83-19.1,40.1-3,6.17-5.91,11.05-12.42,13.59a16.7,16.7,0,0,0-4.1,2.4c-1.16.9-3.49,1.32-2.81,3.27s2.67,1.27,4.24,1.16c25.42-1.76,50.92-1.07,76.37-2.15,19.06-.81,38.15-.2,57.23-.63,29.25-.65,58.49-.89,87.72-2.7,20.91-1.29,41.92-.17,62.89-.72C348.69,216.6,382.36,217.59,414.22,216.21Z"/><path class="cls-1" d="M230.92,251.74c2,10.33-3.72,20.35-8.42,30.31-7.88,16.66-21,29-37.27,37.85-9.79,5.35-20.23,9.63-32,7.64-6.2-1-11.44-4.55-17.57-6.08a165.23,165.23,0,0,1-49.36-21c-10.92-7-22.11-13.74-34.25-18.55-10.26-4.06-15.72-10.79-16.34-21.71-.24-4.25-.76-8.49-.68-12.76.05-2.52-1-3.83-3.65-3.53-4.47.51-9,1-13.38,1.85-1.32.25-2.9.52-3.53,2.56-3.94,12.85-4.44,26.27-7,39.33-.6,3,.43,5.12,2.85,7,11.55,9.05,24.52,15.7,37.66,22.2C54.75,320.28,62.5,322,68,328.33c6.36,7.37,14.43,13.08,22.41,18.84,7.83,5.66,11.45,15,18.1,21.74a153.68,153.68,0,0,1,25.41,33.82c10.56,19,25.84,32.78,46.76,40.68,16.77,6.33,33.35,13.1,48.34,23.21,11,7.43,22.85,12,34.68.79a8.91,8.91,0,0,1,1.54-.79c8.65-5.24,17.24-10.57,25.95-15.71,10.84-6.39,21.75-12.65,32.67-18.9,7.78-4.45,16.24-8,23.3-13.35,16.46-12.45,26.05-30.28,36.56-47.3,3.82-6.19,7-13,12-18.18,9.11-9.58,20.64-15.94,33.35-20.32,8.77-3,17.65-6.37,23.92-13.49,4.49-5.1,9.84-9.25,14.57-14.05,2-2,3.45-4.19,3.37-7.13-.34-13.28-3.1-26.24-5.48-39.25-.13-.73-.36-1.52-1.21-1.54s-1.11.75-1.29,1.48c-.64,2.63-1.27,5.26-2,7.88-3.88,14.92-12,27.55-25.26,35.5-15.25,9.14-32,15.71-49.31,20.46-9,2.45-17.92,5-27.3,5.32-4,.15-7.88.17-10.41-3.77a7.65,7.65,0,0,0-5.52-3.14c-12.35-1.93-22.59-8-32-15.64-7.56-6.18-14.68-12.82-23.88-16.95-10.54-4.74-20.92-9.9-31-15.47-7.47-4.13-14-9.44-13.54-19.23.15-3.54-.19-7.11-.32-10.66-.06-1.6-.14-3.05-2.22-3.64-6.21-1.74-9.21.31-9.22,6.48Z"/><path class="cls-2" d="M142.86,318.89c4.14.09,5.72-2.4,7.4-4.42q35.6-42.86,71.06-85.83c.7-.84,2.19-1.58,1.65-2.76-.66-1.44-2.35-.73-3.56-.72-20.83.16-41.66.52-62.48.44-4.29,0-6.76,1.84-9.1,4.68Q122.51,261,97.14,291.64c-2.45,2.93-2,4.68.92,7,9.49,7.58,20.62,12.11,31.77,16.54C134.25,316.93,139,317.82,142.86,318.89Z"/><path class="cls-2" d="M345.11,312.67a6.67,6.67,0,0,0,4.39-2.14,144.52,144.52,0,0,1,23.31-22.06c5.85-4.48,10.28-10.4,16-14.86,10.2-7.9,19.53-16.71,29.11-25.28,9-8,17.12-16.83,26.53-24.38.95-.76,2.19-2.23,2-3.09-.41-1.79-2.42-1.06-3.74-1.05-24.05.23-48.09.54-72.13.74a6.69,6.69,0,0,0-5.56,2.74c-4.17,5.11-8.39,10.18-12.6,15.26q-19.63,23.7-39.31,47.36c-2,2.37-2.4,4.23.21,6.46,4.15,3.57,7.87,7.64,12.21,11C331.16,307.63,337,311.72,345.11,312.67Z"/><path class="cls-3" d="M414.22,216.21c-31.86,1.38-65.53.39-99.16,1.27-21,.55-42-.57-62.89.72-29.23,1.81-58.47,2.05-87.72,2.7-19.08.43-38.17-.18-57.23.63-25.45,1.08-50.95.39-76.37,2.15-1.57.11-3.61.67-4.24-1.16s1.65-2.37,2.81-3.27a16.7,16.7,0,0,1,4.1-2.4c6.51-2.54,9.37-7.42,12.42-13.59C52.51,190,57.82,176.17,65,163.16c6.78-12.25,14.95-23.67,21.51-36,8.37-15.8,20.2-29,33-41.49a630.6,630.6,0,0,1,62.2-53.81c10.53-7.92,23-13.27,36.12-16.49a52.09,52.09,0,0,0,12.68-4.45c9.76-5.31,19.57-5.92,29.26.37a11.66,11.66,0,0,0,3.65,1.34c14.65,3.4,28,10.13,39.86,18.53,15.94,11.28,31.61,23,45.73,36.7,13.81,13.44,27.72,26.83,39.37,41.93,8.1,10.52,14.68,22.43,20.87,34.38,5.64,10.87,11,21.91,17.52,32.37a159.1,159.1,0,0,1,10.3,20.66c2.55,5.86,5.47,11,12.23,12.94a13.07,13.07,0,0,1,3,1.66c1.22.75,3.18,1.5,2.86,2.87-.38,1.6-2.48,1-3.85,1C439.59,216.15,427.81,216.87,414.22,216.21Z"/><path class="cls-3" d="M230.92,251.74V246c0-6.17,3-8.22,9.22-6.48,2.08.59,2.16,2,2.22,3.64.13,3.55.47,7.12.32,10.66-.42,9.79,6.07,15.1,13.54,19.23,10.11,5.57,20.49,10.73,31,15.47,9.2,4.13,16.32,10.77,23.88,16.95,9.41,7.67,19.65,13.71,32,15.64a7.65,7.65,0,0,1,5.52,3.14c2.53,3.94,6.44,3.92,10.41,3.77,9.38-.36,18.32-2.87,27.3-5.32,17.35-4.75,34.06-11.32,49.31-20.46,13.27-7.95,21.38-20.58,25.26-35.5.69-2.62,1.32-5.25,2-7.88.18-.73.43-1.5,1.29-1.48s1.08.81,1.21,1.54c2.38,13,5.14,26,5.48,39.25.08,2.94-1.37,5.1-3.37,7.13-4.73,4.8-10.08,8.95-14.57,14.05-6.27,7.12-15.15,10.47-23.92,13.49-12.71,4.38-24.24,10.74-33.35,20.32-4.94,5.19-8.16,12-12,18.18-10.51,17-20.1,34.85-36.56,47.3-7.06,5.34-15.52,8.9-23.3,13.35-10.92,6.25-21.83,12.51-32.67,18.9-8.71,5.14-17.3,10.47-25.95,15.71a8.91,8.91,0,0,0-1.54.79c-11.83,11.23-23.65,6.64-34.68-.79-15-10.11-31.57-16.88-48.34-23.21-20.92-7.9-36.2-21.65-46.76-40.68a153.68,153.68,0,0,0-25.41-33.82c-6.65-6.73-10.27-16.08-18.1-21.74-8-5.76-16.05-11.47-22.41-18.84-5.46-6.34-13.21-8.05-20.07-11.44-13.14-6.5-26.11-13.15-37.66-22.2-2.42-1.9-3.45-4-2.85-7,2.6-13.06,3.1-26.48,7-39.33.63-2,2.21-2.31,3.53-2.56,4.42-.83,8.91-1.34,13.38-1.85,2.6-.3,3.7,1,3.65,3.53-.08,4.27.44,8.51.68,12.76.62,10.92,6.08,17.65,16.34,21.71,12.14,4.81,23.33,11.59,34.25,18.55a165.23,165.23,0,0,0,49.36,21c6.13,1.53,11.37,5,17.57,6.08,11.82,2,22.26-2.29,32-7.64,16.23-8.87,29.39-21.19,37.27-37.85C227.2,272.09,232.87,262.07,230.92,251.74ZM143.81,331c-6.12,0-12.24,0-18.36,0-2.87,0-4.09.89-1.83,3.38,3.68,4,5.58,9.66,11.6,11.7,2.6.88,4.08,3.53,5.09,6.15a323.44,323.44,0,0,0,14.42,31.53c6.68,12.9,15,24.23,29.59,29.85,17.44,6.72,35.67,10.23,54,13.06a113.77,113.77,0,0,0,30,1.12c18.24-2,36.22-4.53,53.87-10,22.06-6.83,37.37-20,47.4-40.31,5.49-11.11,8.17-23.77,17.85-32.81a24.46,24.46,0,0,0,5.15-7.32c1.44-3,.18-3-2.14-3.09-3.77-.07-7.8.54-11.28-.53-8.24-2.51-16.57-2.79-25-2.78-3.33,0-5,.87-5.41,4.41a117.39,117.39,0,0,1-6.15,26.16c-3,8.34-6.72,16.71-13.24,22.76-10.78,10-24,15.73-38.95,17.69a247.27,247.27,0,0,1-60.42.71c-16.21-1.85-31.38-6.11-43.55-17.5a15.87,15.87,0,0,1-3.22-4c-7.93-14.8-14.3-30.17-17.47-46.66-.57-2.95-2.2-3.6-4.87-3.56C155.18,331,149.49,331,143.81,331Z"/><path class="cls-1" d="M143.81,331c5.68,0,11.37.06,17.05,0,2.67,0,4.3.61,4.87,3.56,3.17,16.49,9.54,31.86,17.47,46.66a15.87,15.87,0,0,0,3.22,4c12.17,11.39,27.34,15.65,43.55,17.5a247.27,247.27,0,0,0,60.42-.71c14.91-2,28.17-7.68,38.95-17.69,6.52-6.05,10.2-14.42,13.24-22.76a117.39,117.39,0,0,0,6.15-26.16c.43-3.54,2.08-4.41,5.41-4.41,8.47,0,16.8.27,25,2.78,3.48,1.07,7.51.46,11.28.53,2.32.05,3.58.1,2.14,3.09a24.46,24.46,0,0,1-5.15,7.32c-9.68,9-12.36,21.7-17.85,32.81-10,20.27-25.34,33.48-47.4,40.31-17.65,5.47-35.63,8-53.87,10a113.77,113.77,0,0,1-30-1.12c-18.36-2.83-36.59-6.34-54-13.06-14.57-5.62-22.91-16.95-29.59-29.85a323.44,323.44,0,0,1-14.42-31.53c-1-2.62-2.49-5.27-5.09-6.15-6-2-7.92-7.66-11.6-11.7-2.26-2.49-1-3.39,1.83-3.38C131.57,331,137.69,331,143.81,331Z"/></g></g></svg>